<svg width="16" height="16" viewBox="0 0 16 16" fill="none" xmlns="http://www.w3.org/2000/svg">
<path fill-rule="evenodd" clip-rule="evenodd" d="M5.86465 2.72488C5.30028 3.21852 4.79372 3.82053 4.50835 4.39838C5.8356 3.47884 7.97132 3.47884 7.97132 3.47884V1.63976C7.5949 1.63976 7.11048 1.83837 6.61682 2.15546C5.94779 1.60106 4.95906 1.33325 3.67126 1.33325C3.43219 1.33325 3.23839 1.5391 3.23839 1.79302C3.23839 2.04695 3.43219 2.25279 3.67126 2.25279C4.63759 2.25279 5.36391 2.41453 5.86465 2.72488ZM11.4344 4.39838C11.1547 3.83207 10.6626 3.24255 10.1118 2.75457C10.6132 2.43465 11.3471 2.26781 12.3285 2.26781C12.5676 2.26781 12.7614 2.06197 12.7614 1.80804C12.7614 1.55412 12.5676 1.34827 12.3285 1.34827C11.0312 1.34827 10.0373 1.62007 9.36813 2.18287C8.85994 1.84985 8.35854 1.63976 7.9714 1.63976V3.47884C7.9714 3.47884 10.1651 3.47884 11.4344 4.39838ZM3.38412 8.9829C2.6113 9.06139 1.94842 9.47124 1.42146 10.2087C1.27693 10.411 1.31414 10.6994 1.50458 10.8529C1.69501 11.0064 1.96655 10.9669 2.11108 10.7646C2.48754 10.2378 2.93442 9.94955 3.47668 9.89641C3.5255 10.2108 3.59074 10.5218 3.66893 10.8176C3.04975 11.4584 2.77744 12.295 2.87356 13.2995C2.89774 13.5521 3.11015 13.7361 3.34799 13.7104C3.58583 13.6847 3.75904 13.4591 3.73487 13.2065C3.68274 12.6618 3.77092 12.2017 4.00845 11.8145C4.04671 11.9024 4.08614 11.9862 4.12656 12.0655C4.84022 13.4654 6.03411 14.2559 7.13425 14.6666V5.47118C6.2758 5.47118 4.8132 5.72395 3.95469 6.66547C3.43913 6.45765 3.05212 6.00752 2.77223 5.29429C2.68026 5.05991 2.42681 4.9491 2.20614 5.0468C1.98548 5.14449 1.88115 5.41369 1.97313 5.64806C2.32338 6.5406 2.84513 7.15382 3.52021 7.47015C3.3984 7.90264 3.35966 8.4296 3.38412 8.9829ZM12.5234 9.89641C12.4746 10.2108 12.4093 10.5218 12.3311 10.8176C12.9503 11.4584 13.2226 12.295 13.1265 13.2995C13.1023 13.5521 12.8899 13.7361 12.6521 13.7104C12.4142 13.6847 12.241 13.4591 12.2652 13.2065C12.3173 12.6618 12.2291 12.2017 11.9916 11.8145C11.9533 11.9024 11.9139 11.9862 11.8735 12.0655C11.1598 13.4654 9.96596 14.2559 8.86581 14.6666V5.47118C9.72427 5.47118 11.1869 5.72395 12.0454 6.66547C12.5609 6.45766 12.9479 6.00752 13.2278 5.29429C13.3198 5.05991 13.5733 4.9491 13.7939 5.0468C14.0146 5.14449 14.1189 5.41369 14.0269 5.64806C13.6767 6.5406 13.1549 7.15382 12.4798 7.47015C12.6017 7.90264 12.6404 8.4296 12.6159 8.9829C13.3888 9.06139 14.0516 9.47124 14.5786 10.2087C14.7231 10.411 14.6859 10.6994 14.4955 10.8529C14.305 11.0064 14.0335 10.9669 13.889 10.7646C13.5125 10.2378 13.0656 9.94955 12.5234 9.89641Z" fill="white" fill-opacity="0.9" style="fill:white;fill-opacity:0.6;"/>
</svg>
